<?xml version="1.0" standalone="no"?>
<!DOCTYPE svg PUBLIC "-//W3C//DTD SVG 20010904//EN"
 "http://www.w3.org/TR/2001/REC-SVG-20010904/DTD/svg10.dtd">
<svg version="1.0" xmlns="http://www.w3.org/2000/svg"
 width="256.000000pt" height="256.000000pt" viewBox="0 0 256.000000 256.000000"
 preserveAspectRatio="xMidYMid meet">

<g transform="translate(0.000000,256.000000) scale(0.100000,-0.100000)"
fill="#000000" stroke="none">
<path d="M0 1280 l0 -1280 1280 0 1280 0 0 1280 0 1280 -1280 0 -1280 0 0
-1280z m840 645 c351 -75 355 -76 408 -115 40 -28 41 -29 64 -11 48 38 92 51
426 125 268 60 347 74 358 65 9 -7 14 -32 14 -70 l0 -58 38 -3 37 -3 3 -599
c1 -330 -1 -603 -6 -608 -4 -4 -185 -17 -402 -28 -322 -18 -398 -24 -412 -37
-25 -22 -141 -22 -166 0 -15 14 -78 20 -412 37 -217 11 -397 23 -402 28 -4 4
-7 278 -6 608 l3 599 38 3 37 3 0 58 c0 64 13 84 50 76 14 -2 162 -34 330 -70z"/>
<path d="M520 1395 c0 -294 4 -535 8 -535 21 0 630 -132 657 -142 17 -6 37
-17 46 -25 8 -7 19 -13 22 -13 4 0 7 79 7 175 l0 175 25 0 25 0 0 -175 c0 -96
3 -175 6 -175 4 0 22 9 40 21 29 17 246 68 637 149 l57 11 0 536 0 535 -37 -6
c-79 -14 -73 0 -73 -177 0 -121 -3 -159 -12 -159 -7 0 -37 23 -66 52 l-53 51
-54 -53 c-78 -77 -85 -70 -85 86 0 97 -3 125 -12 121 -7 -2 -62 -15 -123 -27
-114 -24 -164 -43 -202 -80 -21 -19 -23 -30 -23 -115 0 -95 0 -95 -25 -95 -25
0 -25 0 -25 98 0 149 4 147 -413 236 -169 36 -311 66 -317 66 -7 0 -10 -183
-10 -535z"/>
<path d="M430 1255 c0 -436 3 -556 13 -559 20 -7 708 -38 713 -33 6 6 10 5
-356 82 -173 36 -320 71 -327 77 -10 8 -13 114 -13 499 0 428 -2 489 -15 489
-13 0 -15 -68 -15 -555z"/>
<path d="M2110 1322 c0 -403 -2 -492 -14 -501 -7 -6 -163 -43 -347 -82 -183
-38 -335 -72 -338 -74 -7 -8 92 -4 419 13 l305 17 0 554 c0 435 -3 555 -12
559 -10 3 -13 -99 -13 -486z"/>
</g>
</svg>
